<svg viewBox="0 0 15 15" xmlns="http://www.w3.org/2000/svg">
<path d="M14.729 3.33874L13.4129 2.02264C13.2325 1.84204 13.013 1.75171 12.755 1.75171C12.4968 1.75171 12.2773 1.84204 12.0969 2.02264L5.74838 8.38071L2.90321 5.52583C2.72254 5.34517 2.5032 5.25494 2.24522 5.25494C1.98707 5.25494 1.76773 5.34517 1.58707 5.52583L0.270963 6.84197C0.0902984 7.0226 0 7.24201 0 7.50013C0 7.75804 0.0902984 7.97765 0.270963 8.15825L3.77413 11.6613L5.09033 12.9774C5.2709 13.1582 5.4903 13.2484 5.74838 13.2484C6.00637 13.2484 6.22577 13.1579 6.40644 12.9774L7.72261 11.6613L14.729 4.65495C14.9095 4.47429 15 4.25491 15 3.9968C15.0001 3.73881 14.9095 3.51941 14.729 3.33874Z"/>
</svg>
