<svg viewBox="0 0 25 25" fill="none" xmlns="http://www.w3.org/2000/svg">
<g clip-path="url(#clip0_16_2)">
<path d="M24.7256 0.292055C24.5466 0.112757 24.3012 0.00738596 24.0484 0.0183235L9.363 0.267738C9.34551 0.268031 9.32838 0.268666 9.31124 0.269935C7.02832 0.435463 4.80215 1.49523 3.04301 3.25407C3.04081 3.25627 3.03832 3.25842 3.03618 3.26091C1.33031 5.00256 0.262781 7.20506 0.028308 9.48461C-0.159095 11.8368 0.588612 13.9828 2.13354 15.5271C3.49326 16.8859 5.31567 17.6274 7.33296 17.6588C7.37569 19.6808 8.11714 21.4991 9.45782 22.8395C10.8188 24.2335 12.7048 24.9824 14.8334 24.9824C15.056 24.9824 15.2815 24.9743 15.5084 24.9575C20.2262 24.5475 24.3708 20.4004 24.7471 15.7135C24.7487 15.6939 24.7496 15.6742 24.7502 15.6545L24.9996 0.969156C25.004 0.715786 24.9049 0.471303 24.7256 0.292055ZM22.8801 15.5923C22.559 19.398 19.1857 22.7604 15.36 23.093C13.5282 23.2246 11.9082 22.6718 10.7885 21.525C9.64644 20.3829 9.08961 18.7597 9.22051 16.9535C9.22237 16.9311 9.223 16.9083 9.223 16.8858V16.6988C9.223 16.1821 8.80425 15.7634 8.28765 15.7634H8.10059C8.07564 15.7634 8.05069 15.7644 8.02574 15.7666C6.23262 15.91 4.60849 15.3556 3.4561 14.2039C2.30497 13.0534 1.74999 11.4302 1.8912 9.65453C2.08017 7.81776 2.96035 6.01311 4.36899 4.57356C5.80322 3.14089 7.59634 2.27629 9.42159 2.13752L23.1127 1.9049L22.8801 15.5923Z" fill="white"/>
<path d="M24.7258 0.291712C24.3604 -0.0737185 23.7687 -0.0737185 23.4032 0.291712L1.079 22.616C0.713574 22.9811 0.713574 23.5735 1.079 23.9386C1.26143 24.1213 1.50088 24.2127 1.74033 24.2127C1.97949 24.2127 2.21895 24.1213 2.40166 23.9386L24.7259 1.61432C25.0913 1.24923 25.0913 0.65685 24.7258 0.291712Z" fill="white"/>
<path d="M9.13365 15.018L9.00122 16.8838L23.4998 17.9129L23.6322 16.0471L9.13365 15.018Z" fill="white"/>
<path d="M15.7029 8.53388L15.5278 10.3964L23.8215 11.1761L23.9966 9.31361L15.7029 8.53388Z" fill="white"/>
<path d="M12.1533 1.05491L10.2854 1.16229L10.972 13.1041L12.8398 12.9967L12.1533 1.05491Z" fill="white"/>
<path d="M18.6303 0.855438L16.7773 1.11285L17.5569 6.72433L19.4099 6.46691L18.6303 0.855438Z" fill="white"/>
</g>
<defs>
<clipPath id="clip0_16_2">
<rect width="25" height="25" fill="white"/>
</clipPath>
</defs>
</svg>
