<svg viewBox="0 0 15 15" xmlns="http://www.w3.org/2000/svg">
<path d="M3.33315 8.0853L10.0083 14.7604C10.1627 14.9149 10.3688 15 10.5886 15C10.8083 15 11.0144 14.9149 11.1688 14.7604L11.6604 14.2689C11.9803 13.9487 11.9803 13.4282 11.6604 13.1084L6.05508 7.50311L11.6666 1.89157C11.821 1.73706 11.9063 1.53108 11.9063 1.31145C11.9063 1.09158 11.821 0.885602 11.6666 0.730968L11.175 0.239632C11.0205 0.0851202 10.8146 0 10.5948 0C10.375 0 10.1689 0.0851202 10.0146 0.239632L3.33315 6.9208C3.17839 7.0758 3.09339 7.28275 3.09388 7.50274C3.09339 7.7236 3.17839 7.93042 3.33315 8.0853Z"/>
</svg>
