<svg viewBox="0 0 15 15" xmlns="http://www.w3.org/2000/svg">
<g clip-path="url(#clip0_7_903)">
<path d="M4.5 12C3.675 12 3 12.675 3 13.5C3 14.325 3.675 15 4.5 15C5.325 15 6 14.325 6 13.5C6 12.675 5.325 12 4.5 12ZM0 0V1.5H1.5L4.2 7.2L3.15 9C3.075 9.225 3 9.525 3 9.75C3 10.575 3.675 11.25 4.5 11.25H13.5V9.75H4.8C4.725 9.75 4.65 9.675 4.65 9.6V9.52497L5.325 8.24997H10.875C11.475 8.24997 11.925 7.94997 12.15 7.49997L14.85 2.625C15 2.475 15 2.4 15 2.25C15 1.8 14.7 1.5 14.25 1.5H3.15L2.475 0H0ZM12 12C11.175 12 10.5 12.675 10.5 13.5C10.5 14.325 11.175 15 12 15C12.825 15 13.5 14.325 13.5 13.5C13.5 12.675 12.825 12 12 12Z"/>
</g>
<defs>
<clipPath id="clip0_7_903">
<rect width="15" height="15" fill="white"/>
</clipPath>
</defs>
</svg>
