<?xml version="1.0" encoding="UTF-8" standalone="no"?><svg xmlns="http://www.w3.org/2000/svg" xmlns:xlink="http://www.w3.org/1999/xlink"><symbol id="like" viewBox="0 0 30 30" fill="none" xmlns="http://www.w3.org/2000/svg"><g clip-path="url(#clip0_14_569)"><path d="M14.91 6.07558C16.1208 3.20578 18.8868 1.20058 22.104 1.20058C26.4378 1.20058 29.559 4.90798 29.9514 9.32638C29.9514 9.32638 30.1632 10.4232 29.697 12.3978C29.0622 15.087 27.57 17.4762 25.5582 19.2996L14.91 28.8L4.4412 19.299C2.4294 17.4762 0.937201 15.0864 0.302401 12.3972C-0.163799 10.4226 0.0480013 9.32578 0.0480013 9.32578C0.440401 4.90738 3.5616 1.19998 7.8954 1.19998C11.1132 1.19998 13.6992 3.20578 14.91 6.07558Z" fill="#E5583C"></path></g><defs><clipPath><rect width="30" height="30" fill="white"></rect></clipPath></defs></symbol><symbol id="shopping-cart" viewBox="0 0 50 50" fill="none" xmlns="http://www.w3.org/2000/svg"><path d="M33.3496 40.7812C31.1133 40.7812 29.375 42.6172 29.375 44.8535C29.375 47.0898 31.2109 48.9258 33.3496 48.9258C35.4883 48.9258 37.3242 47.0898 37.3242 44.8535C37.3242 42.6172 35.4883 40.7812 33.3496 40.7812ZM33.3496 46.8848C32.2266 46.8848 31.416 45.9668 31.416 44.8438C31.416 43.7207 32.334 42.8027 33.3496 42.8027C34.3652 42.8027 35.2832 43.7207 35.2832 44.8438C35.2832 45.9668 34.3652 46.8848 33.3496 46.8848Z" fill="#1B4145"></path><path d="M11.6602 40.7812C9.42383 40.7812 7.68555 42.6172 7.68555 44.8535C7.68555 47.0898 9.52149 48.9258 11.6602 48.9258C13.8965 48.9258 15.6348 47.0898 15.6348 44.8535C15.6348 42.6172 13.7988 40.7812 11.6602 40.7812ZM11.6602 46.8848C10.5371 46.8848 9.72656 45.9668 9.72656 44.8438C9.72656 43.7207 10.6445 42.8027 11.6602 42.8027C12.7832 42.8027 13.5938 43.7207 13.5938 44.8438C13.5938 45.9766 12.6855 46.8848 11.6602 46.8848Z" fill="#1B4145"></path><path d="M42.9199 1.07422L41.3379 7.28516H1.37695L8.75 29.1309C6.2793 29.4922 4.43359 31.582 4.43359 34.2676C4.43359 37.2168 6.66992 39.5605 9.52148 39.5605H37.2168V37.627H9.52148C7.79297 37.627 6.46484 36.2012 6.46484 34.3652C6.46484 32.5293 7.89062 31.1035 9.52148 31.1035H37.2168H37.3145L44.541 3.10547H48.6133V1.07422H42.9199ZM35.791 29.0723H10.8496L4.22852 9.31641H40.7812L35.791 29.0723Z" fill="#E60F09"></path></symbol></svg>