<?xml version="1.0" encoding="UTF-8" standalone="no"?><svg xmlns="http://www.w3.org/2000/svg" xmlns:xlink="http://www.w3.org/1999/xlink"><symbol id="like" viewBox="0 0 30 30" fill="none" xmlns="http://www.w3.org/2000/svg"><g clip-path="url(#clip0_14_569)"><path d="M14.91 6.07558C16.1208 3.20578 18.8868 1.20058 22.104 1.20058C26.4378 1.20058 29.559 4.90798 29.9514 9.32638C29.9514 9.32638 30.1632 10.4232 29.697 12.3978C29.0622 15.087 27.57 17.4762 25.5582 19.2996L14.91 28.8L4.4412 19.299C2.4294 17.4762 0.937201 15.0864 0.302401 12.3972C-0.163799 10.4226 0.0480013 9.32578 0.0480013 9.32578C0.440401 4.90738 3.5616 1.19998 7.8954 1.19998C11.1132 1.19998 13.6992 3.20578 14.91 6.07558Z" fill="#E5583C"></path></g><defs><clipPath><rect width="30" height="30" fill="white"></rect></clipPath></defs></symbol><symbol id="close-button" viewBox="0 0 20 20" xmlns="http://www.w3.org/2000/svg"><g clip-path="url(#clip0_7_1315)"><path d="M20 2L18 0L10 8L2 0L0 2L8 10L0 18L2 20L10 12L18 20L20 18L12 10L20 2Z"></path></g><defs><clipPath><rect width="20" height="20" fill="white"></rect></clipPath></defs></symbol><symbol id="correct-symbol" viewBox="0 0 15 15" xmlns="http://www.w3.org/2000/svg"><path d="M14.729 3.33874L13.4129 2.02264C13.2325 1.84204 13.013 1.75171 12.755 1.75171C12.4968 1.75171 12.2773 1.84204 12.0969 2.02264L5.74838 8.38071L2.90321 5.52583C2.72254 5.34517 2.5032 5.25494 2.24522 5.25494C1.98707 5.25494 1.76773 5.34517 1.58707 5.52583L0.270963 6.84197C0.0902984 7.0226 0 7.24201 0 7.50013C0 7.75804 0.0902984 7.97765 0.270963 8.15825L3.77413 11.6613L5.09033 12.9774C5.2709 13.1582 5.4903 13.2484 5.74838 13.2484C6.00637 13.2484 6.22577 13.1579 6.40644 12.9774L7.72261 11.6613L14.729 4.65495C14.9095 4.47429 15 4.25491 15 3.9968C15.0001 3.73881 14.9095 3.51941 14.729 3.33874Z"></path></symbol><symbol id="plus" viewBox="0 0 15 15" fill="none" xmlns="http://www.w3.org/2000/svg"><g clip-path="url(#clip0_119_589)"><path d="M15 7.0055H7.99451V0H7.0055V7.0055H0V7.99451H7.0055V15H7.99451V7.99451H15V7.0055Z" fill="black"></path></g><defs><clipPath><rect width="15" height="15" fill="white"></rect></clipPath></defs></symbol><symbol id="minus" viewBox="0 0 15 15" fill="none" xmlns="http://www.w3.org/2000/svg"><path d="M15 7.00549H0V7.9945H15V7.00549Z" fill="black"></path></symbol><symbol id="leaf" viewBox="0 0 25 25" fill="none" xmlns="http://www.w3.org/2000/svg"><g clip-path="url(#clip0_16_2)"><path d="M24.7256 0.292055C24.5466 0.112757 24.3012 0.00738596 24.0484 0.0183235L9.363 0.267738C9.34551 0.268031 9.32838 0.268666 9.31124 0.269935C7.02832 0.435463 4.80215 1.49523 3.04301 3.25407C3.04081 3.25627 3.03832 3.25842 3.03618 3.26091C1.33031 5.00256 0.262781 7.20506 0.028308 9.48461C-0.159095 11.8368 0.588612 13.9828 2.13354 15.5271C3.49326 16.8859 5.31567 17.6274 7.33296 17.6588C7.37569 19.6808 8.11714 21.4991 9.45782 22.8395C10.8188 24.2335 12.7048 24.9824 14.8334 24.9824C15.056 24.9824 15.2815 24.9743 15.5084 24.9575C20.2262 24.5475 24.3708 20.4004 24.7471 15.7135C24.7487 15.6939 24.7496 15.6742 24.7502 15.6545L24.9996 0.969156C25.004 0.715786 24.9049 0.471303 24.7256 0.292055ZM22.8801 15.5923C22.559 19.398 19.1857 22.7604 15.36 23.093C13.5282 23.2246 11.9082 22.6718 10.7885 21.525C9.64644 20.3829 9.08961 18.7597 9.22051 16.9535C9.22237 16.9311 9.223 16.9083 9.223 16.8858V16.6988C9.223 16.1821 8.80425 15.7634 8.28765 15.7634H8.10059C8.07564 15.7634 8.05069 15.7644 8.02574 15.7666C6.23262 15.91 4.60849 15.3556 3.4561 14.2039C2.30497 13.0534 1.74999 11.4302 1.8912 9.65453C2.08017 7.81776 2.96035 6.01311 4.36899 4.57356C5.80322 3.14089 7.59634 2.27629 9.42159 2.13752L23.1127 1.9049L22.8801 15.5923Z" fill="white"></path><path d="M24.7258 0.291712C24.3604 -0.0737185 23.7687 -0.0737185 23.4032 0.291712L1.079 22.616C0.713574 22.9811 0.713574 23.5735 1.079 23.9386C1.26143 24.1213 1.50088 24.2127 1.74033 24.2127C1.97949 24.2127 2.21895 24.1213 2.40166 23.9386L24.7259 1.61432C25.0913 1.24923 25.0913 0.65685 24.7258 0.291712Z" fill="white"></path><path d="M9.13365 15.018L9.00122 16.8838L23.4998 17.9129L23.6322 16.0471L9.13365 15.018Z" fill="white"></path><path d="M15.7029 8.53388L15.5278 10.3964L23.8215 11.1761L23.9966 9.31361L15.7029 8.53388Z" fill="white"></path><path d="M12.1533 1.05491L10.2854 1.16229L10.972 13.1041L12.8398 12.9967L12.1533 1.05491Z" fill="white"></path><path d="M18.6303 0.855438L16.7773 1.11285L17.5569 6.72433L19.4099 6.46691L18.6303 0.855438Z" fill="white"></path></g><defs><clipPath><rect width="25" height="25" fill="white"></rect></clipPath></defs></symbol><symbol id="shopping-cart-btn" viewBox="0 0 15 15" xmlns="http://www.w3.org/2000/svg"><g clip-path="url(#clip0_7_903)"><path d="M4.5 12C3.675 12 3 12.675 3 13.5C3 14.325 3.675 15 4.5 15C5.325 15 6 14.325 6 13.5C6 12.675 5.325 12 4.5 12ZM0 0V1.5H1.5L4.2 7.2L3.15 9C3.075 9.225 3 9.525 3 9.75C3 10.575 3.675 11.25 4.5 11.25H13.5V9.75H4.8C4.725 9.75 4.65 9.675 4.65 9.6V9.52497L5.325 8.24997H10.875C11.475 8.24997 11.925 7.94997 12.15 7.49997L14.85 2.625C15 2.475 15 2.4 15 2.25C15 1.8 14.7 1.5 14.25 1.5H3.15L2.475 0H0ZM12 12C11.175 12 10.5 12.675 10.5 13.5C10.5 14.325 11.175 15 12 15C12.825 15 13.5 14.325 13.5 13.5C13.5 12.675 12.825 12 12 12Z"></path></g><defs><clipPath><rect width="15" height="15" fill="white"></rect></clipPath></defs></symbol><symbol id="right-arrow" viewBox="0 0 15 15" xmlns="http://www.w3.org/2000/svg"><path d="M3.33315 8.0853L10.0083 14.7604C10.1627 14.9149 10.3688 15 10.5886 15C10.8083 15 11.0144 14.9149 11.1688 14.7604L11.6604 14.2689C11.9803 13.9487 11.9803 13.4282 11.6604 13.1084L6.05508 7.50311L11.6666 1.89157C11.821 1.73706 11.9063 1.53108 11.9063 1.31145C11.9063 1.09158 11.821 0.885602 11.6666 0.730968L11.175 0.239632C11.0205 0.0851202 10.8146 0 10.5948 0C10.375 0 10.1689 0.0851202 10.0146 0.239632L3.33315 6.9208C3.17839 7.0758 3.09339 7.28275 3.09388 7.50274C3.09339 7.7236 3.17839 7.93042 3.33315 8.0853Z"></path></symbol><symbol id="shopping-cart" viewBox="0 0 50 50" fill="none" xmlns="http://www.w3.org/2000/svg"><path d="M33.3496 40.7812C31.1133 40.7812 29.375 42.6172 29.375 44.8535C29.375 47.0898 31.2109 48.9258 33.3496 48.9258C35.4883 48.9258 37.3242 47.0898 37.3242 44.8535C37.3242 42.6172 35.4883 40.7812 33.3496 40.7812ZM33.3496 46.8848C32.2266 46.8848 31.416 45.9668 31.416 44.8438C31.416 43.7207 32.334 42.8027 33.3496 42.8027C34.3652 42.8027 35.2832 43.7207 35.2832 44.8438C35.2832 45.9668 34.3652 46.8848 33.3496 46.8848Z" fill="#1B4145"></path><path d="M11.6602 40.7812C9.42383 40.7812 7.68555 42.6172 7.68555 44.8535C7.68555 47.0898 9.52149 48.9258 11.6602 48.9258C13.8965 48.9258 15.6348 47.0898 15.6348 44.8535C15.6348 42.6172 13.7988 40.7812 11.6602 40.7812ZM11.6602 46.8848C10.5371 46.8848 9.72656 45.9668 9.72656 44.8438C9.72656 43.7207 10.6445 42.8027 11.6602 42.8027C12.7832 42.8027 13.5938 43.7207 13.5938 44.8438C13.5938 45.9766 12.6855 46.8848 11.6602 46.8848Z" fill="#1B4145"></path><path d="M42.9199 1.07422L41.3379 7.28516H1.37695L8.75 29.1309C6.2793 29.4922 4.43359 31.582 4.43359 34.2676C4.43359 37.2168 6.66992 39.5605 9.52148 39.5605H37.2168V37.627H9.52148C7.79297 37.627 6.46484 36.2012 6.46484 34.3652C6.46484 32.5293 7.89062 31.1035 9.52148 31.1035H37.2168H37.3145L44.541 3.10547H48.6133V1.07422H42.9199ZM35.791 29.0723H10.8496L4.22852 9.31641H40.7812L35.791 29.0723Z" fill="#E60F09"></path></symbol></svg>